Coordinates

Units are S.I. units (second, meters, Newtons, ...)
If the header above contains a line with 'inDegrees', this indicates whether rotational values are in degrees (yes) or radians (no).

inDegrees=no
nColumns=21
nRows=17
DataType=double
version=3
OpenSimVersion=4.6-2026-03-31-d6972f9e6
endheader
time	/jointset/ground_pelvis/pelvis_tilt/value	/jointset/ground_pelvis/pelvis_list/value	/jointset/ground_pelvis/pelvis_rotation/value	/jointset/ground_pelvis/pelvis_tx/value	/jointset/ground_pelvis/pelvis_ty/value	/jointset/ground_pelvis/pelvis_tz/value	/jointset/hip_r/hip_flexion_r/value	/jointset/hip_r/hip_adduction_r/value	/jointset/hip_r/hip_rotation_r/value	/jointset/walker_knee_r/knee_angle_r/value	/jointset/patellofemoral_r/knee_angle_r_beta/value	/jointset/ankle_r/ankle_angle_r/value	/jointset/subtalar_r/subtalar_angle_r/value	/jointset/hip_l/hip_flexion_l/value	/jointset/hip_l/hip_adduction_l/value	/jointset/hip_l/hip_rotation_l/value	/jointset/walker_knee_l/knee_angle_l/value	/jointset/patellofemoral_l/knee_angle_l_beta/value	/jointset/ankle_l/ankle_angle_l/value	/jointset/subtalar_l/subtalar_angle_l/value
144.996	-0.1437207200705071	-0.2476734841170728	1.561615755447051	0.7908385567371075	1.024573454778273	-1.20764827860574	-0.102055771607524	-0.1728121850054955	-0.08989711850201387	0.2955350769375737	0.2955350779808095	-0.376047456281215	-0.2790646581520781	0.5157607004228145	0.1258595946981645	0.04135436097911829	0.243374617441803	0.2433746176992069	-0.05005457679217775	-0.3897202885212935
145	-0.1407206367376141	-0.2468015453877624	1.561163404644777	0.7903176016763938	1.024796348578695	-1.208071586608212	-0.1027183666883803	-0.1723973992790065	-0.09526719190803047	0.3115639066265782	0.3115639074999978	-0.3933316801913964	-0.2809730279872992	0.511200343371477	0.1248299622007765	0.04226153932967357	0.2193279076157691	0.219327907902303	-0.03967860880465405	-0.3631376113745332
145.004	-0.137203792125644	-0.2459711063448028	1.560679819955202	0.7898110425004574	1.024838793391084	-1.208447625552451	-0.1025542597649317	-0.1715011425105551	-0.09969444654959629	0.3291568695167577	0.3291568701770629	-0.4106135830473979	-0.2849763242380488	0.506942205316721	0.1231683964062548	0.0434330422237881	0.1980955787567127	0.1980955790689665	-0.03005879545557974	-0.3378525864361778
145.008	-0.1332636599491225	-0.2451712619690253	1.560162684183533	0.7893181215861491	1.02470045194864	-1.208778397522373	-0.1016226500418665	-0.1702110420872058	-0.1031520226339306	0.3482194388587077	0.3482194392686686	-0.4278325259921599	-0.2910496337872683	0.5029824776255759	0.1209706542033286	0.04487490440465541	0.1797493898704943	0.1797493901983297	-0.02138918318700045	-0.3144338307480944
145.012	-0.1289985953631932	-0.2443829514641674	1.55961197429353	0.7888375407860212	1.024382501366715	-1.209066157617635	-0.09999389085839995	-0.1686202054954433	-0.1056412807404469	0.3686493010751368	0.3686493012053864	-0.4448935479773236	-0.299126423428806	0.4993069467047896	0.1183415892059276	0.04659322399762067	0.1643388778868095	0.1643388782145974	-0.01382743925497935	-0.2934021325735773
145.016	-0.1245097103135755	-0.2435803659962694	1.55903039116046	0.7883674426067553	1.023887465402281	-1.20931317136448	-0.09774628990853057	-0.1668256223921794	-0.1071914814325679	0.3903398286894177	0.3903398285192675	-0.4616693258541237	-0.3091032863635535	0.4958940180178624	0.1153931103359133	0.04859256510980231	0.1518938840433538	0.1518938843522523	-0.007486902548888768	-0.2752117090286348
145.02	-0.1198989530365652	-0.2427326697256542	1.558423594302034	0.7879054067484972	1.023219019215807	-1.209521456320449	-0.09496253016262093	-0.1649268290529398	-0.1078584345550918	0.4131836217520915	0.413183621269784	-0.4780035382601695	-0.3208453059599204	0.4927179231351753	0.1122421811866558	0.05087434246325809	0.1424269999498437	0.1424270002206388	-0.002431057327288919	-0.2602349766219819
145.024	-0.1152674525940137	-0.2418059702971403	1.55780023220552	0.7874484608773797	1.022381775478685	-1.20969252178394	-0.09172585464959446	-0.1630248637432176	-0.107722184622392	0.4370759382747096	0.4370759374776144	-0.4937154142813595	-0.3341915362762959	0.4897519132312623	0.1090089360358743	0.05343543920967376	0.1359356531999336	0.1359356534159001	0.001329226196517475	-0.2487516114303571
145.028	-0.1107141244400133	-0.2407654718499827	1.557171767866905	0.7869931109077422	1.021381061738416	-1.209827122065095	-0.0881161662041467	-0.1612214438772506	-0.1068837595552558	0.4619178069696159	0.4619178058646299	-0.5086053508780248	-0.3489603889432366	0.4869712763965977	0.1058149029608088	0.05626712698597593	0.1324036561976122	0.1324036563469778	0.003835732030163577	-0.2409420679107673
145.032	-0.1063345120363162	-0.2395777619924405	1.556552110006054	0.7865353990204443	1.020222696152579	-1.209925038298302	-0.0842061638006381	-0.1596182586848596	-0.1054610278270598	0.487618643445499	0.4876186420494685	-0.5224614895057379	-0.3649549597182169	0.4843560641721255	0.1027812936277803	0.05935426584092842	0.131802115583163	0.1318021156609381	0.005180533055431901	-0.2368852693006494
145.036	-0.102219861156034	-0.2382131991295915	1.55595707257994	0.786070994122991	1.018912765139453	-1.209984903015734	-0.08005760192837068	-0.1583163066597364	-0.1035838150336469	0.5140982640258515	0.5140982623655133	-0.5350670091079111	-0.3819683500446149	0.4818934356720248	0.1000273530293024	0.06267481150307083	0.134089612573011	0.1340896125821025	0.00550156155737812	-0.2365600689186691
145.04	-0.09845641964299202	-0.2366482971538942	1.555403696004405	0.7855953143117149	1.017457413557175	-1.210004083519305	-0.07571783525786435	-0.1574152336497524	-0.1013885408774076	0.5412882071419379	0.5412882052529743	-0.5462077515774866	-0.3997887775774748	0.4795794689271383	0.0976687776979296	0.06619967978658083	0.139211598145786	0.1392115980974017	0.004976426733803834	-0.2398500789998491
145.044	-0.09512490394717572	-0.234867887399049	1.554909470466839	0.7851036781340004	1.015862672066298	-1.209978641526162	-0.0712169521831226	-0.1570126009516853	-0.09901266786752212	0.5691322318495847	0.5691322297747836	-0.5556797368839929	-0.4182039503461824	0.4774202049064316	0.09581617229967396	0.06989297077523939	0.1470990381832421	0.1470990380965774	0.003814802040736448	-0.2465514315339717
145.048	-0.09230003367162444	-0.2328668225586907	1.554491504902493	0.7845914810612605	1.014134348067911	-1.20990338211163	-0.06656580615976199	-0.1572029784595118	-0.09658921359741	0.5975858827195888	0.5975858805064147	-0.5632961767392289	-0.4370042672455218	0.4754317288736853	0.09457347962120626	0.07371251599019268	0.1576664529810628	0.157666452882182	0.002249750726345213	-0.2563829919216157
145.052	-0.09005005743881059	-0.2306511213787272	1.554165678947514	0.7840543927671088	1.012277989180605	-1.209771994181089	-0.06175505862287313	-0.1580767779598851	-0.09424153458577454	0.6266151337453312	0.6266151314432967	-0.5688937354453953	-0.4559849526347697	0.4736393013807992	0.09403634439562641	0.07761071346771245	0.1708096087472112	0.1708096086670365	0.0005283932769269136	-0.2689985825737536
145.056	-0.08843625019795673	-0.2282386073410525	1.553945804569753	0.7834885676476877	1.010298908519012	-1.209577273340159	-0.05675512581482883	-0.1597188061505238	-0.09207856284533623	0.6561942598941024	0.6561942575523031	-0.5723379303663982	-0.4749477199277616	0.4720757704077505	0.0942904337161265	0.08153564240605131	0.1864032079344262	0.1864032079059297	-0.001097697367140451	-0.2840008496374677
145.06	-0.08751237198279736	-0.2256591101661353	1.553842834390724	0.7828908577116169	1.0082022602914	-1.209311414325004	-0.05151689349753057	-0.1622065437417601	-0.09019065486906547	0.6863031177054579	0.6863031153705166	-0.5735276293164164	-0.4937025114826054	0.4707795077023703	0.0954097519016545	0.08543245022374227	0.20429889662685	0.2042988966817775	-0.002382007392672694	-0.3009562731769984
